<svg xmlns="http://www.w3.org/2000/svg" width="190" height="76.6">
  <path d="M38.4 15.1c.3.2.7.3 1.2.3.6 0 1.2-.3 1.2-1.1 0-1-2.4-1.2-2.4-2.5 0-.8.7-1.4 1.7-1.4.3 0 .7 0 1 .2l-.1.4c-.2-.1-.6-.2-1-.2-.5 0-1.1.2-1.1.9 0 1.1 2.4 1.1 2.4 2.6 0 1.1-.9 1.5-1.7 1.5-.5 0-.9-.1-1.2-.2v-.5zm7-2.7c-.3-.1-.6-.2-.8-.2-.9 0-1.4.7-1.4 1.6 0 .9.5 1.6 1.4 1.6.3 0 .6-.1.9-.2v.4c-.3.1-.6.1-1 .1-1.2 0-1.8-.9-1.8-2 0-1.2.8-2 1.9-2 .5 0 .8.1.9.1l-.1.6zm1.4-2.3h.5v2.4c.2-.4.6-.7 1.2-.7 1 0 1.3.7 1.3 1.6v2.3h-.5v-2.3c0-.7-.1-1.2-.9-1.2s-1.1.8-1.1 1.5v2h-.5v-5.6zm8.7 5.6h-.6l-1-3.3-1 3.3h-.6L51 11.9h.5l1 3.3 1.1-3.3h.6l1 3.3 1.1-3.3h.5l-1.3 3.8zm5-.1c-.3.1-.8.2-1.1.2-1.3 0-1.7-.9-1.7-2 0-1.2.6-2 1.6-2 1.1 0 1.5.9 1.5 1.9v.2h-2.6c0 .8.4 1.5 1.3 1.5.3 0 .8-.1 1.1-.3v.5zm-.2-2.1c0-.7-.3-1.3-1-1.3s-1.1.7-1.1 1.3h2.1zm2.5-2.6h-.5v-.6h.5v.6zm-.5 1h.5v3.8h-.5v-3.8zm1.9 3.4l2.3-3h-2.2v-.4H67v.4l-2.3 3H67v.4h-2.9v-.4zm6.8.3c-.3.1-.8.2-1.1.2-1.3 0-1.7-.9-1.7-2 0-1.2.6-2 1.6-2 1.1 0 1.5.9 1.5 1.9v.2h-2.6c0 .8.4 1.5 1.3 1.5.3 0 .8-.1 1.1-.3v.5zm-.2-2.1c0-.7-.3-1.3-1-1.3s-1.1.7-1.1 1.3h2.1zm2-.7v-.9h.5v.7c.2-.4.5-.8 1-.8h.3v.5h-.3c-.8 0-1 .8-1 1.5v1.9h-.5v-2.9zm3.6-1.9h-.5v-.6h.5v.6zm-.5 1h.5v3.8h-.5v-3.8zm1.9 3.3c.3.1.6.2 1 .2.5 0 .8-.2.8-.7 0-.9-1.8-.8-1.8-1.9 0-.8.6-1 1.2-1 .2 0 .6 0 .9.2v.4c-.2-.1-.6-.2-.8-.2-.5 0-.8.1-.8.6 0 .7 1.9.6 1.9 1.9 0 .8-.8 1.1-1.3 1.1-.4 0-.7 0-1.1-.2v-.4zm6.3-2.8c-.3-.1-.6-.2-.8-.2-.9 0-1.4.7-1.4 1.6 0 .9.5 1.6 1.4 1.6.3 0 .6-.1.9-.2v.4c-.3.1-.6.1-1 .1-1.2 0-1.8-.9-1.8-2 0-1.2.8-2 1.9-2 .5 0 .8.1.9.1l-.1.6zm1.5-2.3h.4v2.4c.2-.4.6-.7 1.2-.7 1 0 1.3.7 1.3 1.6v2.3H88v-2.3c0-.7-.1-1.2-.9-1.2S86 13 86 13.7v2h-.5v-5.6zm7.3 5.5c-.3.1-.8.2-1.1.2-1.3 0-1.7-.9-1.7-2 0-1.2.6-2 1.6-2 1.1 0 1.5.9 1.5 1.9v.2h-2.6c0 .8.4 1.5 1.3 1.5.3 0 .8-.1 1.1-.3v.5zm-.3-2.1c0-.7-.3-1.3-1-1.3s-1.1.7-1.1 1.3h2.1zm4.6-3h2.6v.5h-2v1.9h1.9v.5h-1.9v2h2.1v.5h-2.7v-5.4zm4.7.4h-.5v-.6h.5v.6zm-.5 1h.5v3.8h-.5v-3.8zm5.3 3.8h-.5v-.6c-.3.5-.6.7-1.2.7-1.1 0-1.6-.9-1.6-2 0-1.2.5-2 1.6-2 .8 0 1.1.5 1.2.7v-2.4h.5v5.6zm-1.6-.3c.8 0 1.1-.9 1.1-1.6 0-.7-.3-1.6-1.1-1.6-.9 0-1.1.9-1.1 1.6 0 .8.2 1.6 1.1 1.6zm6.4 0c0 1.1-.5 1.9-1.8 1.9-.5 0-1-.1-1.2-.2v-.5c.3.2.7.3 1.1.3 1.2 0 1.3-.9 1.3-2-.3.6-.7.8-1.2.8-1.2 0-1.6-1.1-1.6-1.9 0-1.2.5-2 1.6-2 .5 0 .8.1 1.2.5v-.4h.5v3.5zm-1.7-.1c.9 0 1.2-.8 1.2-1.5 0-.9-.3-1.6-1.1-1.6-.9 0-1.1.9-1.1 1.6-.1.8.2 1.5 1 1.5zm6 .3c-.3.1-.8.2-1.1.2-1.3 0-1.7-.9-1.7-2 0-1.2.6-2 1.6-2 1.1 0 1.5.9 1.5 1.9v.2h-2.6c0 .8.4 1.5 1.3 1.5.3 0 .8-.1 1.1-.3v.5zm-.3-2.1c0-.7-.3-1.3-1-1.3s-1.1.7-1.1 1.3h2.1zm2-.7v-.9h.5v.7c.2-.3.4-.8 1.2-.8.9 0 1.3.6 1.3 1.5v2.4h-.5v-2.3c0-.7-.3-1.2-.9-1.2-.9 0-1.1.8-1.1 1.4v2.1h-.5v-2.9zm6.3-1c1.2 0 1.8 1 1.8 2s-.5 2-1.8 2c-1.2 0-1.8-1-1.8-2s.6-2 1.8-2zm0 3.6c.8 0 1.3-.7 1.3-1.6 0-.9-.4-1.6-1.3-1.6-.8 0-1.3.7-1.3 1.6 0 .9.5 1.6 1.3 1.6zm3-.2c.3.1.6.2 1 .2.5 0 .8-.2.8-.7 0-.9-1.8-.8-1.8-1.9 0-.8.6-1 1.2-1 .2 0 .6 0 .9.2v.4c-.2-.1-.6-.2-.8-.2-.5 0-.8.1-.8.6 0 .7 1.9.6 1.9 1.9 0 .8-.8 1.1-1.3 1.1-.4 0-.7 0-1.1-.2v-.4zm3.5 0c.3.1.6.2 1 .2.5 0 .8-.2.8-.7 0-.9-1.8-.8-1.8-1.9 0-.8.6-1 1.2-1 .2 0 .6 0 .9.2v.4c-.2-.1-.6-.2-.8-.2-.5 0-.8.1-.8.6 0 .7 1.9.6 1.9 1.9 0 .8-.8 1.1-1.3 1.1-.4 0-.7 0-1.1-.2v-.4zm6.3.4c-.3.1-.8.2-1.1.2-1.3 0-1.7-.9-1.7-2 0-1.2.6-2 1.6-2 1.1 0 1.5.9 1.5 1.9v.2h-2.6c0 .8.4 1.5 1.3 1.5.3 0 .8-.1 1.1-.3v.5zm-.2-2.1c0-.7-.3-1.3-1-1.3s-1.1.7-1.1 1.3h2.1zm2-.7v-.9h.5v.7c.2-.3.4-.8 1.2-.8.9 0 1.3.6 1.3 1.5v2.4h-.5v-2.3c0-.7-.3-1.2-.9-1.2-.9 0-1.1.8-1.1 1.4v2.1h-.5v-2.9zm4.5 2.4c.3.1.6.2 1 .2.5 0 .8-.2.8-.7 0-.9-1.8-.8-1.8-1.9 0-.8.6-1 1.2-1 .2 0 .6 0 .9.2v.4c-.2-.1-.6-.2-.8-.2-.5 0-.8.1-.8.6 0 .7 1.9.6 1.9 1.9 0 .8-.8 1.1-1.3 1.1-.4 0-.7 0-1.1-.2v-.4zm6.3-2.8c-.3-.1-.6-.2-.8-.2-.9 0-1.4.7-1.4 1.6 0 .9.5 1.6 1.4 1.6.3 0 .6-.1.9-.2v.4c-.3.1-.6.1-1 .1-1.2 0-1.8-.9-1.8-2 0-1.2.8-2 1.9-2 .5 0 .8.1.9.1l-.1.6zm1.4-2.3h.5v2.4c.2-.4.6-.7 1.2-.7 1 0 1.3.7 1.3 1.6v2.3h-.5v-2.3c0-.7-.1-1.2-.9-1.2s-1.1.8-1.1 1.5v2h-.5v-5.6zm6.9 5c-.2.5-.8.7-1.2.7-1.1 0-1.3-.7-1.3-1.1 0-1.3 1.4-1.3 2.4-1.3h.1v-.2c0-.7-.2-1-.9-1-.4 0-.8.1-1.1.3V12c.3-.1.8-.3 1.1-.3.9 0 1.3.4 1.3 1.4v2.5h-.5v-.5zm0-1.3h-.1c-.8 0-1.8.1-1.8.9 0 .5.4.7.8.7 1.1 0 1.1-1 1.1-1.4v-.2zm2.5-1.5h-.8v-.4h.8v-.3c0-.8 0-1.6 1-1.6.1 0 .4 0 .4.1v.4c-.1-.1-.2-.1-.4-.1-.6 0-.6.7-.6 1.2v.3h.9v.4h-.9v3.4h-.4v-3.4zm4.4 0h-.9v2.5c0 .3.1.6.5.6.2 0 .3 0 .4-.1v.4c-.1 0-.3.1-.6.1-.8 0-.9-.6-.9-1.3v-2.2h-.8v-.4h.8V11l.5-.2v1.1h.9v.4zM42.1 21.4c-.3-.2-.8-.2-1.2-.2-1.4 0-2.1 1-2.1 2.3 0 1.3.7 2.3 2.1 2.3.3 0 .9 0 1.2-.2v.5c-.3.2-.9.2-1.2.2-1.7 0-2.6-1.1-2.6-2.7s1-2.7 2.6-2.7c.3 0 .9.1 1.2.2v.3zm3.3.8c1.2 0 1.8 1 1.8 2s-.5 2-1.8 2c-1.2 0-1.8-1-1.8-2 0-1.1.5-2 1.8-2zm0 3.6c.8 0 1.3-.7 1.3-1.6 0-.9-.4-1.6-1.3-1.6-.8 0-1.3.7-1.3 1.6 0 .8.4 1.6 1.3 1.6zm3.2-2.7v-.9h.5v.7c.2-.3.4-.8 1.2-.8.9 0 1.3.6 1.3 1.5V26h-.5v-2.3c0-.7-.3-1.2-.9-1.2-.9 0-1.1.8-1.1 1.4V26h-.5v-2.9zm5.1-.4h-.8v-.4h.8V22c0-.8 0-1.6 1-1.6.2 0 .4 0 .4.1v.4c-.1-.1-.2-.1-.4-.1-.6 0-.6.7-.6 1.2v.3h.9v.4h-.9v3.4h-.5v-3.4zM59 26c-.3.1-.8.2-1.1.2-1.3 0-1.7-.9-1.7-2 0-1.2.6-2 1.6-2 1.1 0 1.5.9 1.5 1.9v.2h-2.6c0 .8.4 1.5 1.3 1.5.3 0 .8-.1 1.1-.3v.5zm-.2-2.1c0-.7-.3-1.3-1-1.3s-1.1.7-1.1 1.3h2.1zm-.8-3.1h.6l-.9 1.1h-.3l.6-1.1zm5.8 5.3h-.5v-.6c-.3.5-.6.7-1.2.7-1.1 0-1.6-.9-1.6-2 0-1.2.5-2 1.6-2 .8 0 1.1.5 1.2.7v-2.4h.5v5.6zm-1.6-.3c.8 0 1.1-.9 1.1-1.6 0-.7-.3-1.6-1.1-1.6-.9 0-1.1.9-1.1 1.6 0 .7.2 1.6 1.1 1.6zm5.9.2c-.3.1-.8.2-1.1.2-1.3 0-1.7-.9-1.7-2 0-1.2.6-2 1.6-2 1.1 0 1.5.9 1.5 1.9v.2h-2.6c0 .8.4 1.5 1.3 1.5.3 0 .8-.1 1.1-.3v.5zm-.2-2.1c0-.7-.3-1.3-1-1.3s-1.1.7-1.1 1.3h2.1zm-.8-3.1h.6l-.9 1.1h-.3l.6-1.1zm2.8 2.3v-.9h.5v.8c.2-.4.5-.8 1-.8h.3v.5h-.3c-.8 0-1 .8-1 1.5v1.9h-.5v-3zm5.3 2.4c-.2.5-.8.7-1.2.7-1.1 0-1.3-.7-1.3-1.1 0-1.3 1.4-1.3 2.4-1.3h.1v-.2c0-.7-.2-1-.9-1-.4 0-.8.1-1.1.3v-.5c.3-.1.8-.3 1.1-.3.9 0 1.3.4 1.3 1.4V26h-.5v-.5zm-.1-1.4H75c-.8 0-1.8.1-1.8.9 0 .5.4.7.8.7 1.1 0 1.1-1 1.1-1.4v-.2zm3.9-1.4h-.9v2.5c0 .3.1.6.5.6.2 0 .3 0 .4-.1v.4c-.1 0-.3.1-.6.1-.8 0-.9-.6-.9-1.3v-2.2h-.8v-.4h.8v-.9l.5-.2v1.1h1v.4zm1.9-1.5h-.5v-.6h.5v.6zm-.5 1h.5V26h-.5v-3.8zm3.7 0c1.2 0 1.8 1 1.8 2s-.5 2-1.8 2c-1.2 0-1.8-1-1.8-2 .1-1.1.6-2 1.8-2zm0 3.6c.8 0 1.3-.7 1.3-1.6 0-.9-.4-1.6-1.3-1.6-.8 0-1.3.7-1.3 1.6.1.8.5 1.6 1.3 1.6zm3.3-2.7v-.9h.5v.7c.2-.3.4-.8 1.2-.8.9 0 1.3.6 1.3 1.5V26h-.5v-2.3c0-.7-.3-1.2-.9-1.2-.9 0-1.1.8-1.1 1.4V26h-.5v-2.9zm7.1 2.4c.3.1.6.2 1 .2.5 0 .8-.2.8-.7 0-.9-1.8-.8-1.8-1.9 0-.8.6-1 1.2-1 .2 0 .6 0 .9.2v.4c-.2-.1-.6-.2-.8-.2-.5 0-.8.1-.8.6 0 .7 1.9.6 1.9 1.9 0 .8-.8 1.1-1.3 1.1-.4 0-.7 0-1.1-.2v-.4zm6.8-.3v.9h-.5v-.7c-.2.3-.4.8-1.2.8-.9 0-1.3-.6-1.3-1.5v-2.4h.5v2.3c0 .7.3 1.2.9 1.2.9 0 1.1-.8 1.1-1.4v-2.1h.5v2.9zm2.2-4h-.5v-.6h.5v.6zm-.5 1h.5V26h-.5v-3.8zm2 3.3c.3.1.6.2 1 .2.5 0 .8-.2.8-.7 0-.9-1.8-.8-1.8-1.9 0-.8.6-1 1.2-1 .2 0 .6 0 .9.2v.4c-.2-.1-.6-.2-.8-.2-.5 0-.8.1-.8.6 0 .7 1.9.6 1.9 1.9 0 .8-.8 1.1-1.3 1.1-.4 0-.7 0-1.1-.2v-.4zm3.5 0c.3.1.6.2 1 .2.5 0 .8-.2.8-.7 0-.9-1.8-.8-1.8-1.9 0-.8.6-1 1.2-1 .2 0 .6 0 .9.2v.4c-.2-.1-.6-.2-.8-.2-.5 0-.8.1-.8.6 0 .7 1.9.6 1.9 1.9 0 .8-.8 1.1-1.3 1.1-.4 0-.7 0-1.1-.2v-.4zm6.4.5c-.3.1-.8.2-1.1.2-1.3 0-1.7-.9-1.7-2 0-1.2.6-2 1.6-2 1.1 0 1.5.9 1.5 1.9v.2h-2.6c0 .8.4 1.5 1.3 1.5.3 0 .8-.1 1.1-.3v.5zm-.3-2.1c0-.7-.3-1.3-1-1.3s-1.1.7-1.1 1.3h2.1zm-72.5 7.9c-.3-.2-.8-.2-1.2-.2-1.4 0-2.1 1-2.1 2.3 0 1.3.7 2.3 2.1 2.3.3 0 .9 0 1.2-.2v.5c-.3.2-.9.2-1.2.2-1.7 0-2.6-1.1-2.6-2.7s1-2.7 2.6-2.7c.3 0 .9.1 1.2.2v.3zm3.3.7c1.2 0 1.8 1 1.8 2s-.5 2-1.8 2c-1.2 0-1.8-1-1.8-2s.5-2 1.8-2zm0 3.6c.8 0 1.3-.7 1.3-1.6 0-.9-.4-1.6-1.3-1.6-.8 0-1.3.7-1.3 1.6 0 .9.4 1.6 1.3 1.6zm3.2-2.6v-.9h.5v.7c.2-.3.4-.8 1.2-.8.9 0 1.3.6 1.3 1.5v2.4h-.5v-2.3c0-.7-.3-1.2-.9-1.2-.9 0-1.1.8-1.1 1.4v2.1h-.5v-2.9zm5.1-.5h-.8v-.4h.8v-.3c0-.8 0-1.6 1-1.6.2 0 .4 0 .4.1v.4c-.1-.1-.2-.1-.4-.1-.6 0-.6.7-.6 1.2v.3h.9v.4h-.9v3.4h-.5V33zm5.3 3.3c-.3.1-.8.2-1.1.2-1.3 0-1.7-.9-1.7-2 0-1.2.6-2 1.6-2 1.1 0 1.5.9 1.5 1.9v.2h-2.6c0 .8.4 1.5 1.3 1.5.3 0 .8-.1 1.1-.3v.5zm-.2-2.1c0-.7-.3-1.3-1-1.3s-1.1.7-1.1 1.3h2.1zm5 2.2h-.5v-.6c-.3.5-.6.7-1.2.7-1.1 0-1.6-.9-1.6-2 0-1.2.5-2 1.6-2 .8 0 1.1.5 1.2.7v-2.4h.5v5.6zm-1.6-.3c.8 0 1.1-.9 1.1-1.6 0-.7-.3-1.6-1.1-1.6-.9 0-1.1.9-1.1 1.6 0 .8.2 1.6 1.1 1.6zm5.9.2c-.3.1-.8.2-1.1.2-1.3 0-1.7-.9-1.7-2 0-1.2.6-2 1.6-2 1.1 0 1.5.9 1.5 1.9v.2h-2.6c0 .8.4 1.5 1.3 1.5.3 0 .8-.1 1.1-.3v.5zm-.2-2.1c0-.7-.3-1.3-1-1.3s-1.1.7-1.1 1.3h2.1zm2-.7v-.9h.5v.7c.2-.4.5-.8 1-.8h.3v.5h-.3c-.8 0-1 .8-1 1.5v1.9h-.5v-2.9zm5.3 2.3c-.2.5-.8.7-1.2.7-1.1 0-1.3-.7-1.3-1.1 0-1.3 1.4-1.3 2.4-1.3h.1v-.2c0-.7-.2-1-.9-1-.4 0-.8.1-1.1.3v-.5c.3-.1.8-.3 1.1-.3.9 0 1.3.4 1.3 1.4v2.5h-.5v-.5zm-.1-1.3H75c-.8 0-1.8.1-1.8.9 0 .5.4.7.8.7 1.1 0 1.1-1 1.1-1.4v-.2zM77 36l2.3-3h-2.2v-.4h2.8v.4l-2.3 3h2.3v.4H77V36zm4.7-4.4h-.5V31h.5v.6zm-.5 1h.5v3.8h-.5v-3.8zm3.8-.1c1.2 0 1.8 1 1.8 2s-.5 2-1.8 2c-1.2 0-1.8-1-1.8-2s.5-2 1.8-2zm0 3.6c.8 0 1.3-.7 1.3-1.6 0-.9-.4-1.6-1.3-1.6-.8 0-1.3.7-1.3 1.6 0 .9.5 1.6 1.3 1.6zm3.2-2.6v-.9h.5v.7c.2-.3.4-.8 1.2-.8.9 0 1.3.6 1.3 1.5v2.4h-.5v-2.3c0-.7-.3-1.2-.9-1.2-.9 0-1.1.8-1.1 1.4v2.1h-.5v-2.9zm7.4 2.8c-.3.1-.8.2-1.1.2-1.3 0-1.7-.9-1.7-2 0-1.2.6-2 1.6-2 1.1 0 1.5.9 1.5 1.9v.2h-2.6c0 .8.4 1.5 1.3 1.5.3 0 .8-.1 1.1-.3v.5zm-.3-2.1c0-.7-.3-1.3-1-1.3s-1.1.7-1.1 1.3h2.1zm4.5 1.6c.3.2.7.3 1.2.3.6 0 1.2-.3 1.2-1.1 0-1-2.4-1.2-2.4-2.5 0-.8.7-1.4 1.7-1.4.3 0 .7 0 1 .2l-.1.5c-.2-.1-.6-.2-1-.2-.5 0-1.1.2-1.1.9 0 1.1 2.4 1.1 2.4 2.6 0 1.1-.9 1.5-1.7 1.5-.5 0-.9-.1-1.2-.2v-.6zm5.8.6h-.6l-1.3-3.8h.5l1.1 3.3 1.1-3.3h.5l-1.3 3.8zm3.1-4.8h-.5V31h.5v.6zm-.5 1h.5v3.8h-.5v-3.8zm1.9 3.4l2.3-3h-2.2v-.4h2.8v.4l-2.3 3h2.3v.4h-2.9V36zm3.9 0l2.3-3h-2.2v-.4h2.8v.4l-2.3 3h2.3v.4H114V36zm6.8.3c-.3.1-.8.2-1.1.2-1.3 0-1.7-.9-1.7-2 0-1.2.6-2 1.6-2 1.1 0 1.5.9 1.5 1.9v.2h-2.6c0 .8.4 1.5 1.3 1.5.3 0 .8-.1 1.1-.3v.5zm-.2-2.1c0-.7-.3-1.3-1-1.3s-1.1.7-1.1 1.3h2.1zm2-.7v-.9h.5v.7c.2-.4.5-.8 1-.8h.3v.5h-.3c-.8 0-1 .8-1 1.5v1.9h-.5v-2.9zm5.3 2.3c-.2.5-.8.7-1.2.7-1.1 0-1.3-.7-1.3-1.1 0-1.3 1.4-1.3 2.4-1.3h.1v-.2c0-.7-.2-1-.9-1-.4 0-.8.1-1.1.3v-.5c.3-.1.8-.3 1.1-.3.9 0 1.3.4 1.3 1.4v2.5h-.5v-.5zm-.1-1.3h-.1c-.8 0-1.8.1-1.8.9 0 .5.4.7.8.7 1.1 0 1.1-1 1.1-1.4v-.2zm-85.7 7.6c-.3-.2-.8-.2-1.2-.2-1.4 0-2.1 1-2.1 2.3 0 1.3.7 2.3 2.1 2.3.3 0 .9 0 1.2-.2v.5c-.3.2-.9.2-1.2.2-1.7 0-2.6-1.1-2.6-2.7s1-2.7 2.6-2.7c.3 0 .9.1 1.2.2v.3zm3.3.8c1.2 0 1.8 1 1.8 2s-.5 2-1.8 2c-1.2 0-1.8-1-1.8-2 0-1.1.5-2 1.8-2zm0 3.6c.8 0 1.3-.7 1.3-1.6 0-.9-.4-1.6-1.3-1.6-.8 0-1.3.7-1.3 1.6 0 .8.4 1.6 1.3 1.6zm3.2-2.7v-.9h.5v.7c.2-.3.4-.8 1.2-.8.9 0 1.3.6 1.3 1.5v2.4h-.5v-2.3c0-.7-.3-1.2-.9-1.2-.9 0-1.1.8-1.1 1.4v2.1h-.5v-2.9zm5.1-.4h-.8V43h.8v-.3c0-.8 0-1.6 1-1.6.2 0 .4 0 .4.1v.4c-.1-.1-.2-.1-.4-.1-.6 0-.6.7-.6 1.2v.3h.9v.4h-.9v3.4h-.5v-3.4zm5.3 3.3c-.3.1-.8.2-1.1.2-1.3 0-1.7-.9-1.7-2 0-1.2.6-2 1.6-2 1.1 0 1.5.9 1.5 1.9v.2h-2.6c0 .8.4 1.5 1.3 1.5.3 0 .8-.1 1.1-.3v.5zm-.2-2.1c0-.7-.3-1.3-1-1.3s-1.1.7-1.1 1.3h2.1zm5 2.2h-.5v-.6c-.3.5-.6.7-1.2.7-1.1 0-1.6-.9-1.6-2 0-1.2.5-2 1.6-2 .8 0 1.1.5 1.2.7v-2.4h.5v5.6zm-1.6-.3c.8 0 1.1-.9 1.1-1.6 0-.7-.3-1.6-1.1-1.6-.9 0-1.1.9-1.1 1.6 0 .7.2 1.6 1.1 1.6zm5.9.2c-.3.1-.8.2-1.1.2-1.3 0-1.7-.9-1.7-2 0-1.2.6-2 1.6-2 1.1 0 1.5.9 1.5 1.9v.2h-2.6c0 .8.4 1.5 1.3 1.5.3 0 .8-.1 1.1-.3v.5zm-.2-2.1c0-.7-.3-1.3-1-1.3s-1.1.7-1.1 1.3h2.1zm2-.8v-.9h.5v.7c.2-.4.5-.8 1-.8h.3v.5h-.3c-.8 0-1 .8-1 1.5v1.9h-.5v-2.9zm5.3 2.4c-.2.5-.8.7-1.2.7-1.1 0-1.3-.7-1.3-1.1 0-1.3 1.4-1.3 2.4-1.3h.1v-.2c0-.7-.2-1-.9-1-.4 0-.8.1-1.1.3v-.5c.3-.1.8-.3 1.1-.3.9 0 1.3.4 1.3 1.4v2.6h-.5v-.6zm-.1-1.4H75c-.8 0-1.8.1-1.8.9 0 .5.4.7.8.7 1.1 0 1.1-1 1.1-1.4v-.2zm1.9 1.6l2.3-3h-2.2V43h2.8v.4l-2.3 3h2.3v.4H77v-.4zm4.7-4.5h-.5v-.6h.5v.6zm-.5 1h.5v3.8h-.5v-3.8zm5.3 3v.9H86v-.7c-.2.3-.4.8-1.2.8-.9 0-1.3-.6-1.3-1.5V43h.5v2.3c0 .7.3 1.2.9 1.2.9 0 1.1-.8 1.1-1.4V43h.5v2.9zm1.7-2.1v-.9h.5v.7c.2-.3.4-.8 1.2-.8.9 0 1.3.6 1.3 1.5v2.4h-.5v-2.3c0-.7-.3-1.2-.9-1.2-.9 0-1.1.8-1.1 1.4v2.1h-.5v-2.9zm7.1 2.4c.3.1.6.2 1 .2.5 0 .8-.2.8-.7 0-.9-1.8-.8-1.8-1.9 0-.8.6-1 1.2-1 .2 0 .6 0 .9.2v.4c-.2-.1-.6-.2-.8-.2-.5 0-.8.1-.8.6 0 .7 1.9.6 1.9 1.9 0 .8-.8 1.1-1.3 1.1-.4 0-.7 0-1.1-.2v-.4zm5.1.6h-.6L98.5 43h.5l1.1 3.3 1.1-3.3h.5l-1.3 3.8zm3.1-4.9h-.5v-.6h.5v.6zm-.5 1h.5v3.8h-.5v-3.8zm1.9 3.5l2.3-3H105V43h2.8v.4l-2.3 3h2.3v.4h-2.9v-.4zm4.3-2.6v-.9h.5v.7c.2-.4.5-.8 1-.8h.3v.5h-.3c-.8 0-1 .8-1 1.5v1.9h-.5v-2.9zm5.3 2.4c-.2.5-.8.7-1.2.7-1.1 0-1.3-.7-1.3-1.1 0-1.3 1.4-1.3 2.4-1.3h.1v-.2c0-.7-.2-1-.9-1-.4 0-.8.1-1.1.3v-.5c.3-.1.8-.3 1.1-.3.9 0 1.3.4 1.3 1.4v2.6h-.5v-.6zm-.1-1.4h-.1c-.8 0-1.8.1-1.8.9 0 .5.4.7.8.7 1.1 0 1.1-1 1.1-1.4v-.2zM38.5 62.2h1.8c.7 0 1.7.2 1.7 1.3 0 .6-.4 1.1-1 1.2.7.1 1.2.5 1.2 1.2 0 1.3-1.2 1.5-1.8 1.5h-1.8v-5.2zm1 2.2h.5c.4 0 1-.1 1-.6 0-.6-.5-.7-1-.7h-.4v1.3zm0 2.2h.5c.5 0 1.1-.1 1.1-.7 0-.7-.6-.8-1.1-.8h-.5v1.5zm7.1.9h-1V67c-.3.4-.7.6-1.3.6-.9 0-1.3-.6-1.3-1.5v-2.4h1v2.1c0 .5 0 1.1.7 1.1s.9-.8.9-1.3v-1.9h1v3.8zm1.2-3.9h1v.5c.3-.4.7-.6 1.3-.6.9 0 1.3.6 1.3 1.5v2.4h-1v-2.1c0-.5 0-1.1-.7-1.1s-.9.8-.9 1.3v1.9h-1v-3.8zm7.3 3.4c-.3.4-.7.5-1.2.5-1.2 0-1.6-1-1.6-2 0-1.1.4-2 1.6-2 .5 0 .9.2 1.2.5v-2.2h1v5.6h-1V67zm-1-.2c.7 0 .9-.7.9-1.3 0-.5-.3-1.2-.9-1.2-.7 0-.8.7-.8 1.2 0 .6.2 1.3.8 1.3zm6.2.5c-.4.2-.8.3-1.3.3-1.3 0-2-.7-2-2 0-1.1.6-2 1.8-2 1.4 0 1.8 1 1.8 2.3h-2.7c0 .6.5 1 1.1 1 .5 0 .9-.2 1.3-.4v.8zm-.7-2.1c0-.5-.3-.9-.8-.9-.6 0-.8.4-.9.9h1.7zm4.2-.8c-.3-.1-.5-.2-.9-.2-.3 0-.6.1-.6.4 0 .6 1.7.2 1.7 1.6 0 .9-.8 1.3-1.6 1.3-.4 0-.8-.1-1.1-.2l.1-.8c.3.2.6.3 1 .3.3 0 .7-.1.7-.5 0-.8-1.7-.2-1.7-1.6 0-.8.7-1.2 1.5-1.2.5 0 .8.1 1.1.1l-.2.8zm1.3-.6c.4-.2.9-.3 1.3-.3 1.2 0 1.7.5 1.7 1.6v2.4h-.9v-.6c-.2.4-.7.7-1.2.7-.7 0-1.4-.4-1.4-1.1 0-.6.3-.9.7-1.1.4-.2.9-.2 1.3-.2h.6c0-.6-.3-.8-.9-.8-.4 0-.9.2-1.2.4v-1zm1.2 3c.3 0 .5-.1.7-.3.2-.2.2-.5.2-.8h-.4c-.5 0-1.1.1-1.1.7-.1.3.2.4.6.4zm2.9-3.2h.9v.5c.3-.5.8-.6 1.1-.6.5 0 .9.2 1.1.7.2-.5.7-.7 1.2-.7 1 0 1.2.7 1.2 1.5v2.4h-1v-2.3c0-.4 0-.9-.6-.9-.7 0-.8.8-.8 1.3v1.9h-1v-2.3c0-.4 0-.9-.6-.9-.7 0-.8.8-.8 1.3v1.9h-1v-3.8zm7.1.7h-.7v-.7h.7v-.8l1-.3v1.1h.9v.7h-.9v1.8c0 .3.1.6.5.6.2 0 .4 0 .5-.1v.8c-.2.1-.4.1-.7.1-.8 0-1.2-.5-1.2-1.3v-1.9zm5.3 0h-.7v-.7h.7v-.5c0-.8.4-1.3 1.2-1.3.3 0 .5 0 .7.1l-.1.8c-.1-.1-.2-.1-.4-.1-.3 0-.4.3-.4.6v.5h.9v.7h-.9v3.1h-1v-3.2zm6.2 3.2h-1V67c-.3.4-.7.6-1.3.6-.9 0-1.3-.6-1.3-1.5v-2.4h1v2.1c0 .5 0 1.1.7 1.1s.9-.8.9-1.3v-1.9h1v3.8zm-3-4.6V62h.9v.9h-.9zm2.4-.9v.9h-.9V62h.9zm1.8 1.6h.9v.9c0-.4.5-1 1.1-1h.3v1c-.1-.1-.3-.1-.5-.1-.8 0-.8 1-.8 1.6v1.4h-1v-3.8zm5.2-1.4h1.1v3c0 .9.3 1.5 1.1 1.5s1.1-.6 1.1-1.5v-3h1.1v3.3c0 1.4-.8 2-2.1 2s-2.1-.6-2.1-2v-3.3zm5.5 1.4h.9v.5c.3-.5.8-.6 1.1-.6.5 0 .9.2 1.1.7.2-.5.7-.7 1.2-.7 1 0 1.2.7 1.2 1.5v2.4h-1v-2.3c0-.4 0-.9-.6-.9-.7 0-.8.8-.8 1.3v1.9h-1v-2.3c0-.4 0-.9-.6-.9-.7 0-.8.8-.8 1.3v1.9h-1v-3.8zm6.3 0h1.1l.9 2.9.8-2.9h1.2l.8 2.9.8-2.9h1l-1.2 3.9h-1.2l-.8-2.9-.8 2.9h-1.1l-1.5-3.9zm10.4 3.7c-.4.2-.8.3-1.3.3-1.3 0-2-.7-2-2 0-1.1.6-2 1.8-2 1.4 0 1.8 1 1.8 2.3H114c0 .6.5 1 1.1 1 .5 0 .9-.2 1.3-.4v.8zm-.7-2.1c0-.5-.3-.9-.8-.9s-.8.4-.9.9h1.7zm1.9-3.4h1v5.6h-1v-5.6zm2.5 2.5h-.7v-.7h.7v-.8l1-.3v1.1h.9v.7h-.9v1.8c0 .3.1.6.5.6.2 0 .4 0 .5-.1v.8c-.2.1-.4.1-.7.1-.8 0-1.2-.5-1.2-1.3v-1.9zm5-2.1h1.8c.7 0 1.7.2 1.7 1.3 0 .6-.4 1.1-1 1.2.7.1 1.2.5 1.2 1.2 0 1.3-1.2 1.5-1.8 1.5h-1.8v-5.2zm1 2.2h.4c.4 0 1-.1 1-.6 0-.6-.5-.7-1-.7h-.4v1.3zm0 2.2h.5c.5 0 1.1-.1 1.1-.7 0-.7-.6-.8-1.1-.8h-.5v1.5zm5.2-4.4h1.2l2.1 5.2h-1.2l-.5-1.2h-2.1l-.5 1.2h-1.1l2.1-5.2zm.5 1.1l-.8 2.2h1.5l-.7-2.2zm3.5-1.1h2.9v.8h-1.9v1.3h1.8v.8h-1.8v2.3h-1.1v-5.2zm3.8 0h1.1v3c0 .9.3 1.5 1.1 1.5s1.1-.6 1.1-1.5v-3h1.1v3.3c0 1.4-.8 2-2.1 2s-2.1-.6-2.1-2v-3.3z" fill="#1d1d1b"/>
  <path d="M29.8 10.3s-4-1.7-10.6-1.7-10.6 1.7-10.6 1.7-.4 7.7 1.2 12c2.7 7.7 9.5 9.8 9.5 9.8s6.8-2.1 9.5-9.8c1.3-4.3 1-12 1-12z" fill="#e30613"/>
  <path fill="#fff" d="M26.2 16.9v4.2h-4.9v5H17v-5h-4.9v-4.2H17v-5h4.3v5z"/>
</svg>
